# xmcd
#
# Track frame offsets:
#	150
#	21196
#	39467
#	60638
#	78191
#	94234
#	110977
#	130651
#	146409
#	169966
#	189381
#	208668
#	224183
#	243384
#	263467
#
# Disc length: 3773 seconds
#
# Revision: 0
# Processed by: cddbd v1.5.2PL0 Copyright (c) Steve Scherf et al.
# Submitted via: dBpowerAMP V4.0
#
DISCID=da0ebb0f
DTITLE=Salena Saliva and the PC Collective - Egg Yolk Planet Fried
DYEAR=1900
DGENRE=Other
TTITLE0=Summertime
TTITLE1=Fake
TTITLE2=Roadigger
TTITLE3=Dollywood
TTITLE4=Twitchcake
TTITLE5=From Hartley
TTITLE6=Hitchiker
TTITLE7=I Sometimes Wish I'd Never Been Born
TTITLE8=Doghouse
TTITLE9=Shadowkeeper
TTITLE10=Hamster On A Fishing Reel
TTITLE11=Fagknicker
TTITLE12=Think Of Me
TTITLE13=Carnivore
TTITLE14=Fashionable Aliens
EXTD=
EXTT0=
EXTT1=
EXTT2=
EXTT3=
EXTT4=
EXTT5=
EXTT6=
EXTT7=
EXTT8=
EXTT9=
EXTT10=
EXTT11=
EXTT12=
EXTT13=
EXTT14=
PLAYORDER=
